<svg xmlns="http://www.w3.org/2000/svg" viewBox="0 0 120.32 120.32"><defs><style>.cls-1{fill:#108c98;}.cls-2{fill:#4daed0;}.cls-3{fill:#14afbe;}.cls-4{fill:#11818b;}.cls-5{fill:#161415;}.cls-6{fill:#131111;}.cls-7{fill:#d3cdcd;}.cls-8{fill:#0e0d0d;}.cls-9{fill:#0d0c0c;}.cls-10{fill:#fbdfc0;}.cls-11{fill:#916928;}.cls-12{fill:#cfac88;}.cls-13{fill:#161414;}.cls-14{fill:#343131;}.cls-15{fill:#faf4f4;}.cls-16{fill:#363535;}.cls-17{fill:#fadebf;}.cls-18{fill:#fce0c0;}.cls-19{fill:#110f0f;}</style></defs><g id="Layer_2" data-name="Layer 2"><g id="Layer_1-2" data-name="Layer 1"><path class="cls-1" d="M120.32,60.16A60.16,60.16,0,0,1,.26,65.71C.09,63.88,0,62,0,60.16a60.16,60.16,0,0,1,120.32,0Z"/><circle class="cls-2" cx="60.16" cy="60.16" r="56.45"/><path class="cls-3" d="M116,60.16a55.67,55.67,0,0,1-22.77,45h0A55.45,55.45,0,0,1,62.62,115.9c-.81,0-1.63.06-2.45.06A55.75,55.75,0,0,1,4.37,60.6v-.44a55.8,55.8,0,0,1,111.6,0Z"/><path class="cls-4" d="M110.24,77.85c0,.09-7.06,11.37-17,27.27h0A55.45,55.45,0,0,1,62.62,115.9c-.81,0-1.63.06-2.45.06A55.75,55.75,0,0,1,4.37,60.6h0l17.32-21.5,5,8.14L52.93,31.9,64.18,56.83,86.44,37.32Z"/><path class="cls-5" d="M24.85,77.6l-13.16.06c-.55,0-1.11,0-1.67.06l-.45-.39,0,0-.27-.57v0L9.1,76v-.93c.1-1,.23-2,.28-3.08a6.24,6.24,0,0,1,2-4.44,13.41,13.41,0,0,1,6-3.15,2.83,2.83,0,0,1,.69.59c1.39,2.23,2.72,4.51,4.13,6.73a22.1,22.1,0,0,0,1.75,2.14Z"/><path class="cls-5" d="M105.49,67.31c2.25,1.29,4.41,2.74,5.19,5.35a24.55,24.55,0,0,1,.55,4.72c0,.17-.32.37-.5.56l-.49-.09-8.25-.1-5.27-.06L98,73.87c.14-.05.36-.05.43-.15,1.23-1.78,2.45-3.58,3.66-5.37l3.36.94Z"/><path class="cls-6" d="M30.59,77.62l-4.87,0c.57-2.2,1.15-4.41,1.67-6.42l-.94-1.41.26-3.31,3.11-.22.46,3.12-1.14,1.88Z"/><path class="cls-6" d="M96.12,77.71l-4.91,0c.33-1.17.68-2.34,1-3.52.36-1.4,1.3-2.85-.24-4.15a5.37,5.37,0,0,1,.36-3.55l3,0,.45,3.33a3.19,3.19,0,0,0-.68,3.53A42.25,42.25,0,0,1,96.12,77.71Z"/><path class="cls-7" d="M30.59,77.62l-1.45-6.38c.41-.67.78-1.27,1.14-1.88,1.62.45,3,.41,3.71-1.49-.15,1.24-.3,2.47-.46,3.71q-1.08,3-2.18,6Z"/><path class="cls-7" d="M26.45,69.77l.94,1.41c-.52,2-1.1,4.22-1.67,6.42h-.87c-.3-1.24-.61-2.48-.91-3.73L22.83,69.3A4.56,4.56,0,0,0,26.45,69.77Z"/><path class="cls-7" d="M96.12,77.71a42.25,42.25,0,0,0-1.06-4.34,3.19,3.19,0,0,1,.68-3.53,2.87,2.87,0,0,1,1.05,0c1.06.41,1.59-.06,1.79-1.09l.47.39c-.34,1.58-.68,3.17-1,4.75l-1.32,3.82Z"/><path class="cls-7" d="M92,70c1.54,1.3.6,2.75.24,4.15-.3,1.18-.65,2.35-1,3.52h-.62c-.27-1.19-.54-2.37-.8-3.56l-1.22-5.32c.23.16.56.27.67.49.35.64.7,1.1,1.55.77A3.7,3.7,0,0,1,92,70Z"/><path class="cls-5" d="M31.35,77.62q1.09-3,2.18-6c-.08,2-.17,4-.26,6Z"/><path class="cls-8" d="M105.49,67.31v2l-3.36-.94-2.54-1.21L97.8,65.46c-.79-1.18,0-2.23.28-3.32.65-1.87,1.46-3.69,1.94-5.6A13.74,13.74,0,0,0,98.48,45.2a3.78,3.78,0,0,0-1.41-1.06c-1-.56-2-1-3-1.55l-.12.07.14-.07c-.18,1.71,1.32,2.31,2.47,3.51A6.64,6.64,0,0,1,92,43c0,2.52,1.95,3.43,3.75,4.57a12.66,12.66,0,0,1-3.22-.5c-1.08-.32-2.13-.77-3.19-1.15-3.08,4.33-2.55,10.8.05,16.23a9.51,9.51,0,0,1,.41,1.35c.14.83.21,1.67.31,2.5l-2,2.17-1.7.26c-.7-2.25-1.41-4.5-2.11-6.75-.36-1.33-.43-2.84-1.13-4-3.91-6.27-2.45-13.21,1.84-18.51.72-.89,1.59-1.68,1.6-2.94,1.55-2.79,3.75-3.1,7.3-2.53,6.93,1.11,10.64,5.59,12.39,12.06a13.59,13.59,0,0,1-1.67,10.69,8.63,8.63,0,0,0-1.08,7.23C104.07,64.94,104.11,66.5,105.49,67.31Z"/><path class="cls-9" d="M47.85,40.55l-.66-4.31v-1l.14-.72.13-.95.14-.49.29-1.21.18-.47.09-.47.22-.48.12-.66c1.49-2.79,4-4.13,6.92-5a14.63,14.63,0,0,1,10.26.74c5.22,2.34,7.86,7.52,7.1,13.34-.07.51-.09,1-.13,1.54L70.1,44V41.47c-6.57-.43-13-1-19.34-4.15l-1.37,5.16Z"/><path class="cls-10" d="M47.85,40.55l1.54,1.93,1.37-5.16C57.05,40.45,63.53,41,70.1,41.47V44l2.55-3.47c1.31-.15,1.37.86,1.29,1.64-.21,2.08-.81,4-3,4.89a1.06,1.06,0,0,0-.45.5c-1,1.74-2,3.5-3,5.25-.64.65-1.24,1.35-1.93,1.94-3.14,2.71-5.86,3.39-9.49.89-1-.71-2-1.59-3-2.39-.41-.67-.84-1.33-1.24-2-.55-1-1-2-1.63-2.9a6.22,6.22,0,0,0-1.43-1.59,6,6,0,0,1-2.25-5.25C46.64,40.67,47.05,40.32,47.85,40.55Z"/><path class="cls-11" d="M37.62,39.84c1.7,2.67,1.8,5.65,1.69,8.68-.47,1.85-1,3.7-1.42,5.56L37.68,54l-.34-1.47c-.22-2-.44-4-.65-6a2.52,2.52,0,0,0-.52,0C31.73,48.1,28,47,24.69,43.75c-1.34-1.33-1.78-1.31-3,.19a3,3,0,0,0-.64,1c-.49,1.84-1,3.67-1.36,5.53-.25,1.23-.33,2.51-.49,3.76h-.22l-1.42-5.65L17.91,41a3.11,3.11,0,0,1,2.65-2l1.13.09L22,37.41A5.3,5.3,0,0,1,26.41,35,11.85,11.85,0,0,1,37.62,39.84Z"/><path class="cls-12" d="M53.05,53.2c1,.8,1.91,1.68,3,2.39,3.63,2.5,6.35,1.82,9.49-.89.69-.59,1.29-1.29,1.93-1.94l.21,2-.08.08c-2.26,1.33-4.5,2.67-6.78,4a1.37,1.37,0,0,1-1.1.07c-2.27-1.3-4.5-2.65-6.75-4Z"/><path class="cls-13" d="M74,60.34c2.08.49,4.18.95,6.26,1.48,2.62.67,3.93,2.43,4.34,5.08a102,102,0,0,1,1,16.09c0,1.15-.42,1.47-1.55,1.46-6.15,0-12.3,0-18.45,0-9.81,0-19.62,0-29.42,0-.88,0-1.41-.2-1.42-1.13,0-6.07.06-12.12,1.4-18.07a3.73,3.73,0,0,1,2.08-2.63A25.2,25.2,0,0,1,46,60.41c-1.15,1.2-1.15,1.2-.09,2.69.64.91,1.33,1.79,1.9,2.74s1,2.21,2.9,1.72c-.35,1.11-.56,1.94-.88,2.73a1.44,1.44,0,0,0,.42,1.77c1.48,1.54,2.86,3.19,4.33,4.75,1.74,1.85,3.54,3.65,5.31,5.47.07.53.15,1.06.23,1.58l.41,0L61.1,82A14.21,14.21,0,0,1,62,80.76c2.67-2.85,5.33-5.7,8-8.51a1.71,1.71,0,0,0,.43-2c-.3-.79-.48-1.63-.78-2.67C71.42,68,71.94,67,72.5,66a23.55,23.55,0,0,1,1.7-2.87C75,62.06,75.19,61.19,74,60.34Z"/><path class="cls-14" d="M59.92,82.29c-1.77-1.83-3.57-3.63-5.31-5.48-1.47-1.56-2.85-3.21-4.33-4.75a1.44,1.44,0,0,1-.42-1.77c.32-.79.53-1.62.88-2.73-1.85.49-2.29-.69-2.9-1.72S46.58,64,45.94,63.1c-1.06-1.49-1.06-1.49.09-2.69l4.34-2.58c.33-.19.68-.34,1-.52l1.38,3.6c1.38,4.1,2.76,8.2,4.17,12.29.05.16.35.25.53.37a25.05,25.05,0,0,0,.5,2.61C58.58,78.23,59.26,80.25,59.92,82.29Z"/><path class="cls-14" d="M74,60.34c1.15.85.92,1.72.16,2.74A23.55,23.55,0,0,0,72.5,66c-.56,1-1.08,2.09-2.79,1.6.3,1,.48,1.88.78,2.67a1.71,1.71,0,0,1-.43,2c-2.71,2.81-5.37,5.66-8,8.51A14.21,14.21,0,0,0,61.1,82c-.73.08-.83-.33-.6-.87.43-1,1-2,1.33-3.12.41-1.27.65-2.6,1-3.9.17-.14.44-.25.5-.43q2.24-6.51,4.43-13L69,57.24c.45.33.87.69,1.34,1C71.59,58.94,72.82,59.64,74,60.34Z"/><path class="cls-15" d="M69,57.24l-1.32,3.42a4,4,0,0,0-.92.47c-1,.89-2,1.77-3,2.75-.62.65-1.13.76-1.79.15l-1.62-4.41L60,59.7l-1.8,4.11-.74.8c-1.14-1.06-2.18-2.08-3.28-3a6.57,6.57,0,0,0-1.41-.68l-1.38-3.6c.34-.77.66-1.54,1-2.3,0-.1.34-.09.51-.13,2.25,1.34,4.48,2.69,6.75,4a1.37,1.37,0,0,0,1.1-.07c2.28-1.3,4.52-2.64,6.78-4C68.05,55.63,68.54,56.44,69,57.24Z"/><path class="cls-15" d="M35.23,62.64h.3c-.51,1.75-1,3.49-1.54,5.24-.67,1.9-2.09,1.94-3.71,1.49-.15-1-.31-2.08-.46-3.12C31.91,65.48,34.21,65,35.23,62.64Z"/><path class="cls-5" d="M89.79,74.13c.26,1.19.53,2.37.8,3.56a22.56,22.56,0,0,1-2.6,0c-.3,0-.77-.42-.79-.68-.18-2-.28-4-.4-6,.29.29.59.57.87.87C88.38,72.61,89.08,73.37,89.79,74.13Z"/><path class="cls-16" d="M89.79,74.13c-.71-.76-1.41-1.52-2.12-2.26-.28-.3-.58-.58-.87-.87l-.3-2.62,1.7-.26.37.69Z"/><path class="cls-16" d="M17.37,64.41c.59-.47,1.17-1,1.8-1.39a8.93,8.93,0,0,1,1.38-.6l.7.67c.42,1.68.83,3.36,1.25,5l.28.88,0,.3,1.11,4.57a22.1,22.1,0,0,1-1.75-2.14c-1.41-2.22-2.74-4.5-4.13-6.73A2.83,2.83,0,0,0,17.37,64.41Z"/><path class="cls-16" d="M99.59,67.14l2.54,1.21c-1.21,1.79-2.43,3.59-3.66,5.37-.07.1-.29.1-.43.15.33-1.58.67-3.17,1-4.75,0-.2.07-.4.11-.6l.24-.66Z"/><path class="cls-12" d="M35.23,62.64c-1,2.38-3.32,2.84-5.41,3.6l-3.11.22c-2-.69-4.11-1.31-5.19-3.43.19-.88.37-1.76.55-2.63a12.9,12.9,0,0,1,1.28,1,6.86,6.86,0,0,0,9.22.78c.8-.64,1.53-1.37,2.3-2Z"/><path class="cls-15" d="M21.52,63c1.08,2.12,3.16,2.74,5.19,3.43-.08,1.1-.17,2.21-.26,3.31a4.56,4.56,0,0,1-3.62-.47c0-.1,0-.2,0-.3-.09-.29-.19-.58-.28-.88-.42-1.67-.83-3.35-1.25-5Z"/><path class="cls-12" d="M90.15,66c-.1-.83-.17-1.67-.31-2.5a9.51,9.51,0,0,0-.41-1.35,5.74,5.74,0,0,1,1,.49,5.35,5.35,0,0,0,5.14.91,20,20,0,0,0,2.48-1.36c-.25,1.09-1.07,2.14-.28,3.32l-2.51,1.05-3,0Z"/><path class="cls-15" d="M95.29,66.51l2.51-1.05,1.79,1.68-.19.72-.24.66c0,.2-.08.4-.11.6l-.47-.39c-.2,1-.73,1.5-1.79,1.09a2.87,2.87,0,0,0-1.05,0Z"/><path class="cls-15" d="M90.15,66l2.16.52A5.37,5.37,0,0,0,92,70a3.7,3.7,0,0,0-1.16,0c-.85.33-1.2-.13-1.55-.77-.11-.22-.44-.33-.67-.49l-.37-.69Z"/><path class="cls-17" d="M98.08,62.14A20,20,0,0,1,95.6,63.5a5.35,5.35,0,0,1-5.14-.91,5.74,5.74,0,0,0-1-.49c-2.6-5.43-3.13-11.9-.05-16.23,1.06.38,2.11.83,3.19,1.15a12.66,12.66,0,0,0,3.22.5C94,46.38,92.08,45.47,92,43a6.64,6.64,0,0,0,4.49,3.15c-1.15-1.2-2.65-1.8-2.47-3.51h0c1,.51,2,1,3,1.55a3.78,3.78,0,0,1,1.41,1.06A13.74,13.74,0,0,1,100,56.54C99.54,58.45,98.73,60.27,98.08,62.14Z"/><path class="cls-17" d="M94.06,42.59l-.14.07.12-.07Z"/><path class="cls-4" d="M47.19,35.27c.05-.24.09-.48.14-.72C47.28,34.79,47.24,35,47.19,35.27Z"/><path class="cls-4" d="M47.89,31.9l.18-.47Z"/><path class="cls-4" d="M48.16,31c.08-.16.15-.32.22-.48C48.31,30.64,48.24,30.8,48.16,31Z"/><path class="cls-4" d="M47.46,33.6c0-.16.09-.33.14-.49C47.55,33.27,47.51,33.44,47.46,33.6Z"/><path class="cls-18" d="M34.87,60.17c-.77.68-1.5,1.41-2.3,2a6.86,6.86,0,0,1-9.22-.78,12.9,12.9,0,0,0-1.28-1l-3-5.11c-1,.69-1.63-.06-2.05-.88a7.43,7.43,0,0,1-.95-5c.17-.78.61-1.22,1.47-.8q.7,2.84,1.42,5.65h.22c.16-1.25.24-2.53.49-3.76.39-1.86.87-3.69,1.36-5.53a3,3,0,0,1,.64-1c1.26-1.5,1.7-1.52,3-.19,3.26,3.21,7,4.35,11.48,2.88a2.52,2.52,0,0,1,.52,0c.21,2,.43,4,.65,6,.06.9.13,1.8.2,2.7Z"/><path class="cls-17" d="M37.54,55.25c-.07-.9-.14-1.8-.2-2.7.11.49.22,1,.34,1.47l.21.06c.47-1.86,1-3.71,1.42-5.56.84-.42,1.33,0,1.47.77a7.3,7.3,0,0,1-1.42,5.82C38.78,55.9,38.15,55.32,37.54,55.25Z"/><path class="cls-19" d="M58.2,63.81,60,59.7l.42-.08L62,64c-1,.4-1.12,1-.87,2.06.63,2.65,1.09,5.34,1.62,8-.31,1.3-.55,2.63-1,3.9-.34,1.07-.9,2.07-1.33,3.12-.23.54-.13,1,.6.87l-.54,1.83-.41,0c-.08-.52-.16-1-.23-1.58-.66-2-1.34-4-2-6.1a25.05,25.05,0,0,1-.5-2.61c.53-2.4,1-4.81,1.62-7.19C59.37,65.26,59.34,64.38,58.2,63.81Z"/><path class="cls-7" d="M58.2,63.81c1.14.57,1.17,1.45.89,2.57-.6,2.38-1.09,4.79-1.62,7.19-.18-.12-.48-.21-.53-.37-1.41-4.09-2.79-8.19-4.17-12.29a6.57,6.57,0,0,1,1.41.68c1.1.94,2.14,2,3.28,3Z"/><path class="cls-7" d="M62.79,74.11c-.53-2.68-1-5.37-1.62-8-.25-1-.12-1.66.87-2.06.66.61,1.17.5,1.79-.15.92-1,2-1.86,3-2.75a4,4,0,0,1,.92-.47q-2.2,6.51-4.43,13C63.23,73.86,63,74,62.79,74.11Z"/><path class="cls-7" d="M22.5,68.12c.09.3.19.59.28.88C22.69,68.71,22.59,68.42,22.5,68.12Z"/><path class="cls-7" d="M99.16,68.52l.24-.66Z"/></g></g></svg>