<svg xmlns="http://www.w3.org/2000/svg" viewBox="0 0 120.33 120.33"><defs><style>.cls-1{fill:#108c98;}.cls-2{fill:#4daed0;}.cls-3{fill:#14afbe;}.cls-4{fill:#0e838e;}.cls-5{fill:#fff;}.cls-6{fill:#468990;}.cls-7,.cls-8,.cls-9{fill:#4e965b;}.cls-8,.cls-9{stroke:#fff;}.cls-8{stroke-miterlimit:10;}.cls-9{stroke-linecap:round;stroke-linejoin:round;stroke-width:2px;}</style></defs><g id="Layer_2" data-name="Layer 2"><g id="Layer_1-2" data-name="Layer 1"><circle class="cls-1" cx="60.16" cy="60.16" r="60.16"/><circle class="cls-2" cx="60.16" cy="60.16" r="56.45"/><path class="cls-3" d="M116,60.16A55.8,55.8,0,0,1,62.62,115.9c-.81,0-1.63.06-2.45.06A55.8,55.8,0,1,1,116,60.16Z"/><path class="cls-4" d="M95.93,78.81,62.62,115.9c-.81,0-1.63.06-2.45.06A55.82,55.82,0,0,1,6.89,76.79L48.06,30.94Z"/><path class="cls-5" d="M105.22,66.6a12.67,12.67,0,0,1-9.29,12.21h-61a12.67,12.67,0,0,1,3.37-24.89h.24a12.67,12.67,0,0,1,6.74-8.88A13.43,13.43,0,1,1,71,39.61v.1A14.27,14.27,0,0,1,93.8,54,12.66,12.66,0,0,1,105.22,66.6Z"/><path class="cls-6" d="M69.23,64.5l-2.56-2.76c.56-.57,1.18-1.26,1.85-1.88.44-.41.6-.76.25-1.3-.2-.3-.22-.73-.45-1a1.85,1.85,0,0,0-1-.68,26.26,26.26,0,0,0-2.83,0c0-1.08,0-2,0-3,0-.18.33-.44.55-.48a3.4,3.4,0,0,1,1.19,0,1.92,1.92,0,0,0,2.51-1.6c.16-.64.26-1-.28-1.49s-1.29-1.16-1.9-1.72l2.79-2.77c.53.62,1.13,1.29,1.69,2,.41.5.78.46,1.4.26,1.2-.39,1.81-1,1.57-2.31a11.75,11.75,0,0,1,0-1.9c1.12,0,2.15,0,3.19,0,.16,0,.39.36.43.58a3.4,3.4,0,0,1,0,1.19A1.83,1.83,0,0,0,79.12,48c.7.21,1.11.24,1.57-.32s1.1-1.25,1.73-2l2.59,3c-.51.44-1.19,1-1.88,1.6a.85.85,0,0,0-.25,1.3c.21.33.25.78.47,1.09a1.37,1.37,0,0,0,.83.59c.9.08,1.8,0,2.8,0v3.52c-.86,0-1.72,0-2.57,0-.64,0-.87.24-1.2.79a2,2,0,0,0,.73,3.08c.38.28.73.6,1,.87l-2.72,2.59L80.2,61.71l-.21.21a1.47,1.47,0,0,0-.21,0c-1.94.39-2.45,1.65-2.13,3.45a5.74,5.74,0,0,1-.05,1c-1.06,0-2.1,0-3.13,0-.16,0-.39-.35-.43-.58a4.85,4.85,0,0,1,0-1.08c0-2,0-2.07-1.94-2.65a1.11,1.11,0,0,0-.91.28C70.49,63,69.9,63.74,69.23,64.5Zm10.39-9.37a3.75,3.75,0,0,0-3.75-3.81A3.8,3.8,0,0,0,72,55a3.81,3.81,0,1,0,7.61.09Z"/><path class="cls-6" d="M51.61,42.86,52.79,41c1.16-.11,1.63,1.67,3.06.67s-.08-2,.4-3.08l.53-.14c1.77-.49,1.84-.5,2.17,1.33.16.92.81.86,1.35.89a1.57,1.57,0,0,0,1.09-.54,8.35,8.35,0,0,0,.94-1.44c.42.23.79.43,1.14.65s.65.44.93.62c.07,1.13-1.69,1.62-.68,3s2,0,3.11.37l.48,2.1c-.77.88-2.36.08-2.63,1.75s1.42,1.37,1.94,2.42l-1.2,2c-1.15-.25-2.15-2-3.27-.45-.43.61-.15,1.71-.21,2.79l-2,.52c-.9-.75,0-2.38-1.69-2.66s-1.44,1.46-2.46,2l-2-1.28L55,50.3,54,48.8l-2.48.52-.56-2.26c.77-.93,2.32-.05,2.63-1.66S52.17,43.9,51.61,42.86Zm10.23,3.36a2.71,2.71,0,0,0-2.7-2.7,2.74,2.74,0,1,0,2.7,2.7Z"/><path class="cls-6" d="M92.23,67.67c-1.34-2.46-1.47-2.47-3-.13l-1.66-.83a6.45,6.45,0,0,0,.52-1.12,1.15,1.15,0,0,0-.09-.91,1.38,1.38,0,0,0-1-.44c-1.46.27-1.45.31-1.8-1.32.38-.68,1.69-.2,1.71-1.46s-1.22-.85-1.6-1.64l.64-1.4c.87-.22,1.42,1,2.34.17s-.22-1.46,0-2.3l1.48-.53c.77.43.25,1.75,1.53,1.78s.85-1.23,1.68-1.61l1.38.65c.25.84-1,1.34-.24,2.26s1.44-.06,2.31,0l.57,1.48c-.41.82-1.67.32-1.73,1.52s1.09,1,1.62,1.66l-.74,1.52c-2.61-.75-2.79-.59-2.24,2Zm.75-6a2,2,0,1,0-1.93,2.07A2,2,0,0,0,93,61.65Z"/><path class="cls-6" d="M86.82,72.19l-.49,1.08c-2.34-.65-2.48-.52-2,1.79l-1.24.5c-.52-.57-.88-1.27-1.43-1.48-1-.37-.81,1-1.55,1.33l-1.25-.56c.61-2.38.47-2.54-1.82-2l-.4-1.19C77.22,71,78,70.53,78,70s-.78-.92-1.3-1.47l.5-1c.8,0,1.61.24,2-.07s.19-1.15.29-2l1-.43c.46.54.85,1.36,1.34,1.44s1-.68,1.73-1.21l1.14.53c-.7,2.3-.55,2.46,1.79,2L87,69c-.56.53-1.31.93-1.42,1.45S86.27,71.45,86.82,72.19Zm-5-3.63a1.73,1.73,0,0,0-1.74,1.8,1.8,1.8,0,0,0,1.72,1.74,1.83,1.83,0,0,0,1.81-1.88A1.78,1.78,0,0,0,81.79,68.56Z"/><path class="cls-6" d="M45.26,57.82l-.4-1.15c1.75-1,1.76-1.11.13-2.27l.52-1.08c1.9.48,2.07.33,1.67-1.54l1.12-.44c1.11,1.75,1.14,1.75,2.31.15l1.11.47c-.54,2-.41,2.11,1.51,1.69l.4,1.14c-1.73,1.12-1.74,1.16-.09,2.31L53,58.22c-1.88-.57-2-.46-1.68,1.52l-1.13.4C49.15,58.33,49,58.33,48,60l-1.12-.5C47.29,57.56,47.21,57.47,45.26,57.82Zm5.46-2.13a1.59,1.59,0,0,0-1.48-1.44,1.57,1.57,0,0,0-1.43,1.5,1.49,1.49,0,0,0,1.53,1.47A1.52,1.52,0,0,0,50.72,55.69Z"/><path class="cls-7" d="M50.92,99.11A37.16,37.16,0,0,0,67.13,81,35.67,35.67,0,0,0,69.7,66.58a38.71,38.71,0,0,0-37.56,0,36.6,36.6,0,0,0,3,15.14A37.74,37.74,0,0,0,50.92,99.11Z"/><path class="cls-8" d="M50.92,96.09A31.17,31.17,0,0,0,64.51,80.94a30,30,0,0,0,2.16-12.12,32.41,32.41,0,0,0-31.49,0,30.72,30.72,0,0,0,2.53,12.69A31.69,31.69,0,0,0,50.92,96.09Z"/><polyline class="cls-9" points="46.42 78.49 49.59 82.4 56.66 75.33"/></g></g></svg>