<svg xmlns="http://www.w3.org/2000/svg" id="Layer_2" viewBox="0 0 210 210"><g id="Layer_1-2"><g><g><g><circle cx="105" cy="105" r="105" fill="#005596"></circle><g><circle cx="105" cy="105" r="102.34" fill="#005596"></circle><path d="M105,5.32c54.96,0,99.68,44.72,99.68,99.68s-44.72,99.68-99.68,99.68S5.32,159.96,5.32,105,50.04,5.32,105,5.32M105,0C47.01,0,0,47.01,0,105s47.01,105,105,105,105-47.01,105-105S162.99,0,105,0h0Z" fill="#005596"></path></g></g><g><circle cx="105" cy="105" r="105" fill="#e30613"></circle><path d="M105,5.32c54.96,0,99.68,44.72,99.68,99.68s-44.72,99.68-99.68,99.68S5.32,159.96,5.32,105,50.04,5.32,105,5.32M105,0C47.01,0,0,47.01,0,105s47.01,105,105,105,105-47.01,105-105S162.99,0,105,0h0Z" fill="#fff"></path></g></g><g><g><path d="M105,46.95c15.43,0,30.38,3.17,44.42,9.43,2.92,11.88,4.76,24.27,4.8,32.39,0,.15,0,.29,0,.44,0,8-1.15,15.82-3.42,23.25-2.23,7.29-5.55,14.21-9.87,20.55-4.25,6.23-9.49,11.96-15.57,17-6.46,5.36-14.05,10.18-20.36,12.93-6.31-2.75-13.9-7.57-20.36-12.93-6.08-5.05-11.32-10.77-15.57-17-4.32-6.34-7.64-13.26-9.87-20.55-2.27-7.43-3.42-15.24-3.42-23.25,0-.15,0-.29,0-.44,.04-8.12,1.88-20.51,4.8-32.39,14.04-6.26,28.99-9.43,44.42-9.43Z" fill="#fff"></path><path d="M105,92.66c3.42,0,6.64,.88,9.42,2.44h28.68c.06-2,.02-4.26-.02-6.39-.17-8.78-2.72-23.61-5.22-33.89-10.17-3.29-21.09-5.22-32.85-5.22v43.06Z" fill="#ca0538"></path><path d="M105.01,49.63c-11.5,0-22.09,1.72-32.83,5.17-2.64,10.66-4.82,24.77-5.15,31.54-.48,9.92,.24,17.09,2.23,24.94,1.12,4.41,2.6,8.56,4.49,12.76,2.04-1.07,4.16-2.42,6.29-4.01,2.25-1.68,4.2-3.82,5.79-5.85-.08-.73-.13-1.48-.13-2.23,0-1.16,.1-2.3,.3-3.4-3.97,.14-6.22,.19-7.99,.19-2.13,0-4.08-1.49-5.02-3.76h-1c-.75,0-2.03-.64-2.03-3.06s1.28-3.06,2.03-3.06h1c.94-2.28,2.89-3.77,5.03-3.77h17.58c2.78-1.56,6-2.45,9.41-2.45V49.63Z" fill="#e30613"></path><path d="M87.54,146.24c-5.42-5.4-9.9-11.37-13.44-17.74-3.6-6.47-6.15-13.66-7.66-20.86-1.55-7.4-2.04-14.88-1.52-22.81,.49-7.46,2.46-18.77,4.89-29.22-2.33,.82-4.64,1.72-6.92,2.7-2.56,10.27-4.35,23.31-4.39,30.43-.04,7.94,1.09,15.64,3.3,22.87,2.32,7.59,5.4,13.76,9.52,19.81,4.1,6.02,9.17,11.55,15.06,16.44,5.5,4.57,11.77,8.58,18.61,11.97h0s0,0,0,0c-6.5-3.99-12.39-8.56-17.45-13.61Z" fill="#003671"></path><path d="M122.45,146.24c5.42-5.4,9.9-11.37,13.44-17.74,3.6-6.47,6.15-13.66,7.66-20.86,1.55-7.4,2.04-14.88,1.52-22.81-.49-7.46-2.47-18.78-4.9-29.23,2.33,.82,4.65,1.73,6.93,2.71,2.56,10.27,4.35,23.31,4.39,30.44,.04,7.94-1.09,15.64-3.3,22.87-2.15,7.03-5.36,13.7-9.52,19.81-4.1,6.02-9.17,11.55-15.06,16.44-5.5,4.57-11.77,8.58-18.61,11.97h0s0,0,0,0c6.5-3.99,12.39-8.56,17.45-13.61Z" fill="#003671"></path><path d="M104.99,93.62c-10.13,0-18.35,8.21-18.35,18.34s8.21,18.35,18.35,18.35,18.34-8.21,18.34-18.35-8.21-18.34-18.34-18.34Z" fill="#a2863f"></path><path d="M105,131.27c-6.23,0-11.79-2.96-15.32-7.54-4.31,2.46-8.84,4.4-13.17,5.73,3.42,6.01,7.67,11.63,12.78,16.77,4.61,4.64,9.88,8.88,15.71,12.66v-27.62Z" fill="#e30613"></path><path d="M77.99,107.79c-1.98,0-3.68-1.56-4.36-3.76h-1.67c-.43,0-1.07-.52-1.07-2.1s.64-2.1,1.07-2.1h1.67c.67-2.2,2.37-3.77,4.36-3.77h16.04c-3.89,2.69-6.75,6.77-7.85,11.53-3.55,.12-6.28,.2-8.19,.2Z" fill="#a2863f"></path><path d="M149.82,56c-13.63-6.1-28.62-9.56-44.82-9.56s-31.2,3.46-44.82,9.56c-3.14,12.72-4.83,25.05-4.87,32.73-.04,8.2,1.12,16.22,3.44,23.82,2.25,7.34,5.59,14.3,9.94,20.68,4.27,6.27,9.54,12.02,15.66,17.1,5.75,4.78,13.55,10.02,20.66,13.08,7.11-3.07,14.9-8.31,20.66-13.08,6.12-5.08,11.39-10.83,15.66-17.1,4.35-6.38,7.69-13.34,9.94-20.68,2.33-7.6,3.49-15.62,3.44-23.82-.04-7.67-1.73-20.01-4.87-32.73Zm-11.15,75.43c-4.1,6.02-9.17,11.55-15.06,16.44-5.5,4.57-11.78,8.59-18.62,11.97-6.83-3.39-13.11-7.41-18.61-11.97-5.89-4.89-10.95-10.42-15.06-16.44-.33-.48-.64-.96-.96-1.44,5.99-1.01,12.62-3.56,18.74-7.04-1.52-2.2-2.61-4.73-3.11-7.46-1.53,1.88-3.36,3.79-5.45,5.35-3.38,2.52-7.47,5.03-11.88,6.39-2.89-4.92-5.19-10.15-6.86-15.6-2.21-7.23-3.34-14.93-3.3-22.87,.04-7.13,1.83-20.16,4.39-30.43,13.32-5.75,27.48-8.67,42.1-8.67s28.78,2.92,42.1,8.67c2.56,10.27,4.35,23.31,4.39,30.43,.01,2.47-.09,4.91-.3,7.32h-35.27c4.36,3.01,7.43,7.77,8.18,13.26l6.72-1.6c1.5-.34,2.12-1.35,2.28-2.28l16.92-1.14c-.49,2.48-1.1,4.92-1.83,7.31-2.15,7.03-5.36,13.7-9.52,19.81Z" fill="#a2863f"></path><path d="M106.2,117.04v9.88c4.61-.37,8.64-2.83,11.13-6.42l-8.56-4.94c-.69,.72-1.57,1.24-2.57,1.48Z" fill="#fff"></path><path d="M103.77,97.01c-4.62,.37-8.64,2.83-11.14,6.43l8.54,4.93c.69-.73,1.58-1.26,2.59-1.5v-9.86Z" fill="#fff"></path><path d="M104.98,109.29c-1.47,0-2.67,1.19-2.67,2.67s1.19,2.67,2.67,2.67,2.67-1.19,2.67-2.67-1.19-2.67-2.67-2.67Z" fill="#fff"></path><path d="M106.2,97.01v9.86c1.01,.24,1.9,.77,2.59,1.5l8.54-4.93c-2.49-3.6-6.52-6.06-11.13-6.43Z" fill="#fff"></path><path d="M103.77,117.04c-.81-.19-1.55-.58-2.17-1.1-.14-.12-.28-.25-.4-.38l-8.56,4.94c.2,.28,.4,.56,.62,.83,2.51,3.14,6.26,5.26,10.51,5.6v-9.88Z" fill="#fff"></path><path d="M110,113.45l8.55,4.94c1.69-3.45,2.15-8.39,0-12.85l-8.55,4.93c.27,.89,.3,1.96,0,2.98Z" fill="#fff"></path><path d="M94.06,103.16l6.97,4.02c.53-.44,1.13-.79,1.78-1.02v-8.05c-3.45,.52-6.57,2.32-8.76,5.05Z" fill="#a2863f"></path><path d="M107.18,98.11v8.07c.64,.24,1.22,.55,1.75,1l6.99-4.02c-2.18-2.74-5.29-4.53-8.74-5.05Z" fill="#a2863f"></path><path d="M118.97,110.51c-.13-1.23-.42-2.43-.88-3.58l-7,4.02c.06,.33,.09,.67,.09,1.01,0,.14,0,.27-.02,.41,1.98-.54,4.06-1.06,6.17-1.5,.51-.11,1.06-.23,1.63-.35Z" fill="#a2863f"></path><path d="M105,158.89c5.83-3.77,11.11-8.03,15.72-12.67,5.4-5.44,9.86-11.44,13.37-17.84,3.57-6.5,6.09-13.73,7.56-20.95,.11-.56,.22-1.09,.32-1.65l-8.13,.58c-.43,1.14-1.4,1.98-2.77,2.29h.01c-.05,.01-3.03,.75-6.87,1.64,.05,.55,.07,1.11,.07,1.67,0,10.66-8.63,19.31-19.29,19.31v27.62Z" fill="#ca0538"></path><path d="M106.7,111.96c0-.95-.77-1.72-1.72-1.72s-1.72,.77-1.72,1.72,.77,1.72,1.72,1.72,1.72-.77,1.72-1.72Z" fill="#a2863f"></path><path d="M107.16,125.82c3.45-.52,6.58-2.31,8.76-5.05l-7.02-4.04c-.53,.44-1.1,.78-1.74,1.02,0,0,.01,8.07,0,8.07Z" fill="#ca0538"></path><path d="M94.06,120.78l6.99-4.04c.53,.44,1.12,.77,1.76,1.01l-.02,8.08c-3.45-.52-6.55-2.31-8.73-5.04Z" fill="#e30613"></path><path d="M119.04,111.97c0-.19,0-.38-.01-.57-.53,.12-1.04,.22-1.51,.33-2.13,.45-4.2,.97-6.04,1.47l6.61,3.82c.63-1.6,.95-3.3,.95-5.05Z" fill="#ca0538"></path><path d="M91.41,105.55c-1.98,4.19-1.85,8.9,.03,12.86l8.53-4.95c-.29-.96-.3-2,0-2.99l-8.55-4.91Z" fill="#fff"></path><path d="M91.91,117.04l6.96-4.04c-.12-.68-.12-1.37,0-2.06l-6.98-4.01c-1.27,3.25-1.26,6.85,.02,10.11Z" fill="#a2863f"></path><path d="M111.98,80.54c-.02,.38-.12,1.64-.15,2.02h5.56c-.33-1.49-.46-3.55-.52-5.09,0,0-.09-3.21-.09-3.21-.01-.31,.08-.56,.25-.74,.16-.17,.38-.26,.61-.27,.26,0,.69,0,.73,.9l.12,3.41c.06,1.54,.08,3.69-.12,5h5.42c-.09-.47-.25-1.58-.28-1.89,.68,1.44,2.14,2.18,4.09,2.18,1.15,0,2.06-.42,2.72-.83,.02,.04,.28,.54,.28,.54h10.01c-.45-1.51-.72-3.59-.9-5.15,0,0-1.37-11.21-1.37-11.21l-5.16-.83c.42,1.4,.73,3.55,.9,5.09,0,0,.77,7.16,.77,7.16,.15,1.31,.28,2.71,.27,4.11v.17s-.21-.51-.21-.51c-.36-.87-.59-2.1-.71-3.75,0-.01-.21-2.3-.21-2.3-.27-3.64-2.28-5.3-6.62-5.3-.74,0-2.59,.19-3.71,.51l.3,4.15,1.16-.71c.95-.58,1.71-.83,2.56-.83,.69,0,1.14,.26,1.35,.73-.85,.14-1.77,.37-2.79,.82-1.54,.69-2.54,1.68-2.94,2.87,0-.03,0-.07,0-.1,0,0-.18-3.8-.18-3.8-.09-2.46-1.62-3.99-3.99-3.99-1.09,0-2.07,.31-2.91,.92-.05-.15-.1-.29-.15-.41l-.21-.44-4.45-.2c.2,.8,.48,3.04,.54,3.91-.24-1.21-.87-2.5-2.06-3.33-.91-.63-2.05-.97-3.3-.97-1.65,0-3.32,.69-4.46,1.86-1.13,1.15-1.75,2.72-1.81,4.57-.42-.46-.98-.85-1.67-1.18l-2.05-.97-.1-.05c-.49-.23-.51-.31-.5-.44,.02-.21,.49-.43,1.16-.43,.84,0,2.06,.42,3.04,1.05l.08-3.66c-.73-.33-1.75-.6-3.2-.6-.76,0-2.22,.11-3.48,.82h0c-.35,.2-.66,.42-.94,.67l.06-1.08c-1.18-.13-2.45-.17-4,1.27-.01-.1-.11-.6-.22-.89l-4.81,.29c.36,1.29,.4,3.24,.3,4.98,0,0-.09,1.83-.09,1.83,0,0-.01,.21-.01,.21-.05,.96-.11,1.94-.21,2.86-.4-1.24-.84-2.94-1.18-4.35,0,0-2.37-10.69-2.37-10.69l-6.78,.97c.06,.14,.15,.48,.2,.82,.06,.45,.04,1.37-.6,3.25-1.09,3.17-2.66,7.85-4.15,11.08-.21,.45-.57,1.19-.57,1.19h5.28c.07-.83,.42-2.19,.76-3.19,.73-.02,2.65-.07,3.53-.09,.16,.77,.38,1.85,.43,2.49l.06,.79h10.63c-.25-1.67-.15-3.98-.08-5.28,.08-1.49,.39-2.43,1.01-3.08,.48-.5,1.05-.61,1.44-.63-.05,1.99,1.25,2.91,2.42,3.5,0,0,2.08,1.06,2.08,1.06,.75,.39,.73,.59,.72,.72-.03,.4-.63,.55-1.18,.54-1.08-.02-2.58-.77-4.27-2.52l-.09,4.73c1.34,.75,2.96,1.02,4.43,1.02,2.41,0,4.99-1.05,5.69-3.29,1.19,2.27,3.56,3.32,5.9,3.32,2.09,0,3.65-.67,5.02-2.12Zm-36.43-4.74c.27-.79,.49-1.42,.96-2.76,.28,1.34,.43,2.04,.57,2.71-.59,.02-.85,.03-1.53,.05Zm29.68-1.19s0-.03,0-.04c0-1.61,.6-2.24,1.17-2.3,.17-.02,.63-.06,.83,.7,.08,.29,.12,.51,.12,.68,0,.44-.24,.52-.51,.62h-.02s-.82,.32-1.58,.61c0-.09-.01-.19-.01-.28Zm5.53,3.29c-1,.86-1.75,1.42-2.96,1.4-.95-.02-1.54-.66-1.9-1.38,1.05-.39,4.95-1.86,6.07-2.28,.01,.82,.03,1.92,.03,1.92h0c.02,.66,.03,1.29,.02,1.92,0,0,0,.02,0,.02l-1.26-1.6Zm18.09,1.52c-.92,.03-1.12-.59-1.14-1.05,0-.48,.16-1.19,1.63-1.58,.04,.5,.07,1.01,.07,1.01l.03,.46c.02,.32,.04,.62,.07,.94-.19,.13-.42,.22-.68,.23Z" fill="#a1853e"></path><g><path d="M99.43,70.48c-.47-.17-1.22-.34-2.36-.34-.94,0-2.13,.18-3.07,.71-1.08,.61-1.83,1.58-1.9,2.61-.1,1.53,.75,2.26,1.95,2.87,.82,.41,1.6,.81,2.09,1.06,.66,.35,1.23,.77,1.17,1.53-.06,.78-.77,1.3-2,1.3-1.02,0-2.48-.6-3.48-1.51l-.04,2.39c.87,.44,2.29,.7,3.58,.7,2.24,0,5-1.02,5.05-3.64,.04-1.86-1.33-2.63-2.14-3.01-.81-.38-1.66-.79-2.06-.98-.37-.18-1.14-.47-1.07-1.31,.06-.81,.99-1.19,1.98-1.19,.84,0,1.65,.23,2.27,.57l.03-1.77Z" fill="#fff"></path><path d="M79.48,66.18l-5.12,.73c.13,.73-.07,2.01-.63,3.64-1.08,3.14-2.81,8.2-4.19,11.18h3.23c.16-.95,.43-1.93,.89-3.17l4.79-.13c.21,.94,.54,2.45,.6,3.3h4.27c-.53-1.23-1.21-3.84-1.63-5.63l-2.21-9.93Zm-5.12,10.5l2.34-6.74,1.39,6.62-3.74,.12Z" fill="#fff"></path><g><path d="M91.83,70.5l-.11,2.27c-.75-.1-1.74,.07-2.5,.86-.7,.73-1.14,1.79-1.24,3.6-.08,1.49-.14,3.13-.01,4.5h-3.66c.24-1.36,.32-2.98,.41-4.47l.09-1.83c.08-1.49,.09-2.9-.14-4.26l3.19-.2c.15,.53,.22,1.26,.19,2.05,1.4-2.1,2.76-2.57,3.78-2.52Z" fill="#fff"></path><path d="M137.58,66.93l-3.3-.53c.32,1.38,.45,2.48,.62,3.96l.77,7.17c.17,1.49,.29,2.85,.27,4.21h3.57c-.32-1.36-.48-2.71-.65-4.21l-1.29-10.6Z" fill="#fff"></path><path d="M122.81,81.73c-.22-1.36-.3-2.71-.35-4.21l-.18-3.79c-.08-2.01-1.23-3.21-3.17-3.21-1.06,0-2.33,.34-3.41,1.71-.03-.29-.2-1.24-.4-1.67l-2.91-.13c.25,1.41,.33,2.82,.38,4.3l.04,2.79c.06,1.49,.02,2.85-.09,4.21h3.66c-.22-1.36-.3-2.71-.35-4.21l-.09-3.22c-.04-1.14,.81-1.87,1.69-1.88,1.02-.01,1.52,.66,1.56,1.68l.12,3.41c.06,1.49,.08,2.85-.04,4.21h3.52Z" fill="#fff"></path></g><path d="M134.14,81.73c-.44-1.08-.66-2.51-.77-4l-.21-2.29c-.2-2.7-1.34-4.55-5.81-4.55-.77,0-1.9,.12-2.81,.33l.15,2.08c.91-.56,1.85-.96,3-.96s2.22,.49,2.32,2.27c-1.15,.13-2.24,.33-3.45,.87-1.36,.61-2.77,1.71-2.63,3.58,.15,2.07,1.71,2.97,3.68,2.97,1.48,0,2.52-.77,3.08-1.34,.1,.38,.25,.77,.41,1.06h3.04Zm-5.3-1.49c-1.03,.05-1.93-.5-1.96-1.83-.03-1.19,.78-2.24,3.23-2.64l.14,1.95c.05,.67,.07,1.15,.15,1.79-.35,.42-.93,.7-1.56,.73Z" fill="#fff"></path><path d="M109.39,70.82c-.81-.56-1.79-.82-2.82-.82-2.37,0-5.53,1.68-5.45,6.08,.08,4.41,3.46,5.76,5.84,5.76,2.09,0,3.35-.74,4.39-1.83l-.73-.93c-.56,.44-1.42,1.09-2.84,1.06-1.5-.03-2.49-1.15-2.97-2.69l6.57-2.47c-.2-2.17-.95-3.43-1.99-4.16Zm-2.28,4.25l-2.61,1c-.07-.47-.1-.96-.1-1.45-.02-2.72,1.45-3.12,1.92-3.17,.81-.07,1.46,.37,1.71,1.31,.29,1.06,.22,1.9-.92,2.31Z" fill="#fff"></path></g></g><path d="M117.26,159.41c1.13,0,2.04,.92,2.04,2.07s-.9,2.08-2.05,2.08-2.06-.91-2.06-2.08,.92-2.07,2.06-2.07h0Zm0,.32c-.91,0-1.66,.78-1.66,1.75s.75,1.76,1.67,1.76c.92,0,1.66-.77,1.66-1.75s-.74-1.76-1.66-1.76h0Zm-.39,2.96h-.37v-2.31c.19-.03,.38-.06,.65-.06,.35,0,.58,.07,.72,.18,.14,.1,.21,.26,.21,.48,0,.3-.2,.49-.45,.56v.02c.2,.04,.34,.22,.39,.56,.06,.36,.11,.5,.15,.57h-.39c-.06-.07-.11-.29-.16-.59-.06-.29-.2-.41-.5-.41h-.26v1Zm0-1.28h.27c.3,0,.56-.11,.56-.4,0-.2-.15-.41-.56-.41-.12,0-.2,0-.27,.02v.78Z"></path></g><g><g><g><path d="M64.49,23.81l.85,1.54-4.65,2.57,.73,1.33,4.13-2.28,.84,1.53-4.13,2.28,1.02,1.84-1.81,1-3.44-6.23,6.46-3.57Z" fill="#fff"></path><path d="M76.23,26.51l-1.13-.99-4.06,1.65-.12,1.5-2.06,.84,.72-7.97,2.64-1.07,6.07,5.21-2.05,.83Zm-5.05-1.07l2.6-1.06-2.35-2.05-.25,3.1Z" fill="#fff"></path><path d="M86.83,21.37l-1.23-4.95,1.99-.49,1.71,6.91-2.93,.73-5.3-3.94,1.23,4.95-2,.5-1.71-6.91,2.94-.73,5.3,3.94Z" fill="#fff"></path><path d="M96.85,14.62l8.57-.35,.07,1.75-3.25,.13,.22,5.36-2.06,.08-.22-5.36-3.26,.13-.07-1.75Z" fill="#fff"></path><path d="M107.92,17.84c.2-2.35,1.94-3.6,4.93-3.34,2.98,.26,4.49,1.79,4.29,4.13-.2,2.35-1.95,3.61-4.93,3.36-2.99-.26-4.49-1.79-4.29-4.15Zm7.07,.61c.11-1.23-.53-2.05-2.29-2.2-1.75-.15-2.52,.53-2.62,1.78-.11,1.25,.54,2.07,2.28,2.22,1.75,.15,2.53-.55,2.64-1.79Z" fill="#fff"></path><path d="M129.41,17.57l-4.18,2.13,2.62,4.82-2.53-.57-1.82-3.36-1.99,1.01-.32,1.41-2.01-.45,1.57-6.95,2.02,.46-.7,3.12,4.34-2.29,3.02,.68Z" fill="#fff"></path><path d="M139.29,20.99l-.55,1.52-5-1.81-.39,1.07,4.81,1.74-.55,1.52-4.81-1.74-.39,1.07,5,1.81-.55,1.52-6.94-2.51,2.42-6.7,6.94,2.51Z" fill="#fff"></path><path d="M146.5,30.14l2.34-4.54,1.83,.94-3.27,6.33-2.69-1.39-1.39-6.47-2.34,4.54-1.84-.95,3.27-6.33,2.7,1.39,1.39,6.47Z" fill="#fff"></path></g><g><path d="M57.53,179.5c-.31,.51,0,1.15,1.6,2.12,1.47,.88,1.97,.87,2.2,.49,.27-.44,.04-.69-1.7-1.9-2.37-1.66-3.16-2.81-2.35-4.16,.77-1.27,2.49-1.02,4.6,.25,2.35,1.41,3.27,2.94,2.51,4.33l-1.85-1.11c.32-.54-.14-1.1-1.51-1.92-1.3-.78-1.72-.74-1.92-.41-.23,.38,0,.67,1.57,1.8,2.14,1.52,3.5,2.55,2.54,4.15-.94,1.56-2.66,1.15-4.83-.16-2.47-1.49-3.6-2.93-2.72-4.59l1.85,1.12Z" fill="#fff"></path><path d="M66.2,183.1c.94-2.17,2.98-2.79,5.74-1.6,2.75,1.19,3.69,3.12,2.76,5.28-.94,2.17-3,2.81-5.75,1.62-2.76-1.19-3.69-3.12-2.75-5.3Zm6.52,2.83c.49-1.14,.14-2.11-1.48-2.82-1.61-.7-2.56-.29-3.05,.85-.5,1.15-.14,2.13,1.46,2.83,1.61,.7,2.58,.28,3.07-.87Z" fill="#fff"></path><path d="M82.54,185.26c2.52,.71,3.65,2.19,3.36,4.01l-2.11-.59c.04-.67-.45-1.38-1.72-1.73-1.47-.41-2.38,.11-2.72,1.31-.34,1.21,.18,2.14,1.64,2.55,1.27,.35,2.06,0,2.37-.61l2.11,.59c-.7,1.72-2.43,2.41-4.96,1.71-2.75-.77-3.9-2.47-3.25-4.82,.66-2.34,2.52-3.19,5.27-2.42Z" fill="#fff"></path><path d="M91.13,187.38l-1.26,7-2.03-.37,1.26-7,2.03,.37Z" fill="#fff"></path><path d="M93.28,191.41c.19-2.35,1.92-3.6,4.91-3.36,2.98,.24,4.5,1.77,4.31,4.11-.19,2.35-1.93,3.62-4.91,3.38-2.99-.24-4.5-1.77-4.3-4.13Zm7.07,.58c.1-1.23-.54-2.04-2.3-2.19-1.75-.14-2.51,.55-2.62,1.79-.1,1.25,.55,2.06,2.29,2.21,1.75,.14,2.53-.56,2.63-1.81Z" fill="#fff"></path><path d="M107.35,193.3c.03,.6,.64,.96,2.51,.86,1.71-.09,2.12-.38,2.09-.83-.03-.52-.35-.59-2.47-.62-2.89-.05-4.2-.56-4.28-2.14-.08-1.48,1.49-2.24,3.95-2.36,2.74-.14,4.36,.6,4.5,2.18l-2.15,.11c-.03-.63-.73-.83-2.33-.75-1.51,.08-1.84,.35-1.82,.73,.02,.44,.37,.56,2.31,.62,2.62,.06,4.33,.15,4.43,2.02,.1,1.82-1.56,2.44-4.09,2.57-2.88,.15-4.63-.42-4.83-2.29l2.16-.11Z" fill="#fff"></path><path d="M117.06,193.29l1.97-.29,.22,1.53-1.97,.29-.23-1.53Z" fill="#fff"></path><path d="M124.91,185.93c2.55-.62,4.26,.12,4.9,1.85l-2.13,.52c-.29-.61-1.07-.98-2.35-.67-1.48,.36-2.02,1.26-1.73,2.48,.3,1.22,1.21,1.78,2.68,1.42,1.28-.31,1.8-1.01,1.77-1.7l2.13-.52c.23,1.84-.94,3.3-3.49,3.92-2.78,.68-4.62-.24-5.2-2.61-.58-2.36,.63-4.01,3.41-4.69Z" fill="#fff"></path><path d="M132.62,187.73c-.87-2.2,.14-4.08,2.93-5.19,2.78-1.1,4.82-.4,5.68,1.79,.87,2.2-.14,4.11-2.92,5.21-2.79,1.1-4.82,.4-5.69-1.81Zm6.61-2.61c-.45-1.15-1.39-1.6-3.03-.95-1.63,.64-2.02,1.6-1.56,2.76,.46,1.17,1.41,1.61,3.03,.97,1.63-.64,2.02-1.62,1.56-2.78Z" fill="#fff"></path><path d="M145.61,186.25l-3.58-6.16,2.78-1.62,4.52,2.84-.24-5.33,2.78-1.62,3.58,6.16-1.78,1.03-2.59-4.46,.28,5.81-1.65,.96-4.91-3.11,2.6,4.46-1.79,1.04Z" fill="#fff"></path></g></g><path d="M48.34,171.86c-18.95-16.08-30.98-40.07-30.98-66.86S30.03,52.95,49.85,36.88" fill="none" stroke="#fff" stroke-miterlimit="10" stroke-width="2.22"></path><path d="M160.16,36.89c19.82,16.07,32.48,40.61,32.48,68.11s-12.03,50.79-30.98,66.87" fill="none" stroke="#fff" stroke-miterlimit="10" stroke-width="2.22"></path></g></g></g></svg>