<?xml version="1.0" ?><svg height="256" viewBox="0 0 256 256" width="256" xmlns="http://www.w3.org/2000/svg"><defs><style>
      .cls-1 {
        fill: #fab915;
      }

      .cls-2 {
        fill: #fff;
        fill-rule: evenodd;
      }
    </style></defs><g data-name="bitoin btc coin crypto" id="bitoin_btc_coin_crypto"><g data-name="bitoin btc" id="bitoin_btc"><circle class="cls-1" cx="128" cy="128" id="round" r="128"/><path class="cls-2" d="M321,432s21,10.447,21,32.733S326.138,503,303,503H292v7a4.875,4.875,0,0,1-5,5h-9a4.875,4.875,0,0,1-5-5v-7H263v7a4.875,4.875,0,0,1-5,5h-9a4.875,4.875,0,0,1-5-5v-7h-9a4.875,4.875,0,0,1-5-5v-6a4.875,4.875,0,0,1,5-5h9V388h-9a4.875,4.875,0,0,1-5-5v-5a4.875,4.875,0,0,1,5-5h9v-9a4.875,4.875,0,0,1,5-5h9a4.875,4.875,0,0,1,5,5v9h10v-9a4.875,4.875,0,0,1,5-5h9a4.875,4.875,0,0,1,5,5v9h9s34,1.552,34,33C335,429.029,321,432,321,432Zm-20-44H263v39h38s17-2.181,17-21C318,390.771,305.736,388.183,301,388Zm6,54H263v45h40s20.046-4.191,20.046-22.267S310.355,441.985,307,442Z" id="B" transform="translate(-152 -309)"/></g></g></svg>