<svg xmlns="http://www.w3.org/2000/svg" width="156" height="156" fill="none" viewBox="0 0 156 156"><script xmlns=""/><script xmlns="" id="argent-x-extension" data-extension-id="dlcobpjiigpikoobohmabehhmhfoodbb"/>
  <path fill="#fff" d="M132.943 38.935C115.067 25.558 97.94 25.933 97.94 25.933l-1.75 2c21.251 6.376 31.128 15.752 31.128 15.752-30.406-16.74-69.135-16.62-100.76 0 0 0 10.25-9.877 32.753-16.252l-1.25-1.501s-17.002-.374-35.003 13.001c0 0-18.002 32.378-18.002 72.258 0 0 10.502 18.002 38.13 18.877 0 0 4.625-5.5 8.375-10.251-15.876-4.75-21.877-14.626-21.877-14.626 9.974 6.241 20.06 10.148 32.629 12.627 20.448 4.208 45.884-.119 64.882-12.627 0 0-6.251 10.126-22.628 14.751a962.299 962.299 0 0 0 8.251 10.001c27.627-.875 38.128-18.877 38.128-18.751-.002-39.88-18.003-72.257-18.003-72.257Zm-78.257 60.63c-7.002 0-12.752-6.126-12.752-13.75.512-18.264 25.12-18.208 25.503 0 0 7.624-5.627 13.75-12.751 13.75Zm45.628 0c-7.001 0-12.751-6.126-12.751-13.75.561-18.228 24.861-18.236 25.503 0 0 7.624-5.626 13.75-12.752 13.75Z"/>
</svg>