<svg viewBox="0 0 24 24" xml:space="preserve" xmlns="http://www.w3.org/2000/svg"><path d="M20.6 5.7c0-.2-.1-.3-.2-.4L12.3.6c-.1-.1-.3-.1-.5 0L3.6 5.3c-.1.1-.2.2-.2.4s.1.3.2.4l8.1 4.7c.1 0 .2.1.2.1s.2 0 .2-.1l8.1-4.7c.3-.1.4-.3.4-.4zM10.6 13.2 2.5 8.5c-.2-.1-.4-.1-.5 0-.1.1-.2.3-.2.4v9.4c0 .2.1.3.2.4l8.1 4.7c.1 0 .2.1.2.1s.2 0 .2-.1c.1-.1.2-.2.2-.4v-9.4c.2-.2.1-.3-.1-.4zM22 8.5c-.1-.1-.3-.1-.5 0l-8.1 4.7c-.1.1-.2.2-.2.4V23c0 .2.1.3.2.4.1 0 .2.1.2.1s.2 0 .2-.1l8.1-4.7c.1-.1.2-.2.2-.4V8.9c.1-.1 0-.3-.1-.4z" fill="#ffffff" class="fill-000000"></path></svg>