<svg xmlns="http://www.w3.org/2000/svg" width="36" height="32" viewBox="0 0 36 32" fill="none"><script xmlns=""/><script xmlns="" id="argent-x-extension" data-extension-id="dlcobpjiigpikoobohmabehhmhfoodbb"/>
<path d="M21 28H1C0.4375 28 0 28.5 0 29V31C0 31.5625 0.4375 32 1 32H21C21.5 32 22 31.5625 22 31V29C22 28.5 21.5 28 21 28ZM34 8V5C34 4.5 33.5 4 33 4C32.4375 4 32 4.5 32 5V8H30V5C30 4.5 29.5 4 29 4C28.4375 4 28 4.5 28 5V8H27C26.4375 8 26 8.5 26 9V11C26 13.25 27.4375 15.125 29.5 15.75V23.1875C29.5 24.0625 28.875 24.875 28 25C26.9375 25.1875 26 24.3125 26 23.25V21.5C26 18.5 23.5 16 20.5 16H20V4C20 1.8125 18.1875 0 16 0H6C3.75 0 2 1.8125 2 4V26H20V19H20.5C21.875 19 23 20.125 23 21.5V23.0625C23 25.5625 24.75 27.75 27.25 28C30.0625 28.3125 32.5 26.0625 32.5 23.25V15.75C34.5 15.125 36 13.25 36 11V9C36 8.5 35.5 8 35 8H34ZM16.25 11L10.375 19.6875C10.25 19.9375 10 20 9.75 20C9.25 20 8.875 19.625 9 19.25L10.4375 14H6.75C6.25 14 5.9375 13.6875 6 13.3125L7 6.625C7 6.25 7.3125 6 7.75 6H12C12.4375 6 12.8125 6.4375 12.6875 6.875L12 10H15.5625C16.125 10 16.5 10.5625 16.25 11Z" fill="#1de7d9"/>
</svg>