<svg xmlns="http://www.w3.org/2000/svg" width="32" height="32" viewBox="0 0 32 32" fill="none"><script xmlns=""/><script xmlns="" id="argent-x-extension" data-extension-id="dlcobpjiigpikoobohmabehhmhfoodbb"/>
<path d="M31.25 14H29.3125C28.4375 8.1875 23.8125 3.5625 18 2.6875V0.75C18 0.375 17.625 0 17.25 0H14.75C14.3125 0 14 0.375 14 0.75V2.6875C8.125 3.5625 3.5 8.1875 2.625 14H0.75C0.3125 14 0 14.375 0 14.75V17.25C0 17.6875 0.3125 18 0.75 18H2.625C3.5 23.875 8.125 28.5 14 29.375V31.25C14 31.6875 14.3125 32 14.75 32H17.25C17.625 32 18 31.6875 18 31.25V29.375C23.8125 28.5 28.4375 23.875 29.3125 18H31.25C31.625 18 32 17.6875 32 17.25V14.75C32 14.375 31.625 14 31.25 14ZM18 25.3125V22.75C18 22.375 17.625 22 17.25 22H14.75C14.3125 22 14 22.375 14 22.75V25.3125C10.3125 24.5625 7.4375 21.6875 6.6875 18H9.25C9.625 18 10 17.6875 10 17.25V14.75C10 14.375 9.625 14 9.25 14H6.6875C7.4375 10.375 10.3125 7.5 14 6.75V9.25C14 9.6875 14.3125 10 14.75 10H17.25C17.625 10 18 9.6875 18 9.25V6.75C21.625 7.5 24.5 10.375 25.25 14H22.75C22.3125 14 22 14.375 22 14.75V17.25C22 17.6875 22.3125 18 22.75 18H25.25C24.5 21.6875 21.625 24.5625 18 25.3125ZM18 16C18 14.9375 17.0625 14 16 14C14.875 14 14 14.9375 14 16C14 17.125 14.875 18 16 18C17.0625 18 18 17.125 18 16Z" fill="#1de7d9"/>
</svg>