<svg id="Layer_5" fill='#adb5bd' enable-background="new 0 0 64 64" height="512" viewBox="0 0 64 64" width="512" xmlns="http://www.w3.org/2000/svg"><g><path d="m15 26.949v1.051h34v-4h-26.705c-2.012 1.671-4.535 2.738-7.295 2.949z"/><path d="m49 22v-1c0-.552-.448-1-1-1h-22.479c-.37.708-.806 1.376-1.295 2z"/><path d="m14 25c6.065 0 11-4.935 11-11s-4.935-11-11-11-11 4.935-11 11 4.935 11 11 11zm-4-9h2v1.095c0 1.051.854 1.905 1.905 1.905h.189c1.052 0 1.906-.854 1.906-1.905 0-.821-.523-1.548-1.304-1.809l-2.025-.676c-1.598-.532-2.671-2.021-2.671-3.705 0-1.84 1.284-3.378 3-3.789v-2.116h2v2.117c1.716.411 3 1.948 3 3.789l-2 .094v-.095c0-1.051-.854-1.905-1.905-1.905h-.189c-1.052 0-1.906.854-1.906 1.905 0 .821.523 1.548 1.304 1.809l2.025.676c1.598.532 2.671 2.021 2.671 3.705 0 1.84-1.284 3.378-3 3.789v2.116h-2v-2.117c-1.716-.411-3-1.948-3-3.789z"/><path d="m50 39c-6.065 0-11 4.935-11 11s4.935 11 11 11 11-4.935 11-11-4.935-11-11-11zm5 8h-2v-1c0-1.654-1.346-3-3-3s-3 1.346-3 3v1h2v2h-2v2h2v2h-2v1c0 1.654 1.346 3 3 3s3-1.346 3-3v-1h2v1c0 2.757-2.243 5-5 5s-5-2.243-5-5v-1h-2v-2h2v-2h-2v-2h2v-1c0-2.757 2.243-5 5-5s5 2.243 5 5z"/><path d="m49 37.051v-7.051h-34v13c0 .552.448 1 1 1h22.479c2.026-3.874 5.943-6.598 10.521-6.949zm-25 3.949h-4c-1.105 0-2-.895-2-2s.895-2 2-2h4c1.105 0 2 .895 2 2s-.895 2-2 2z"/><path d="m56.908 29.931-2.308-1.731-1.2 1.6 4.6 3.45 4.6-3.45-1.2-1.6-2.478 1.858c-.999-13.984-12.688-25.058-26.922-25.058v2c13.088 0 23.851 10.111 24.908 22.931z"/><path d="m7.092 34.069 2.308 1.731 1.199-1.6-4.599-3.45-4.6 3.45 1.2 1.6 2.478-1.858c.999 13.984 12.688 25.058 26.922 25.058v-2c-13.088 0-23.851-10.111-24.908-22.931z"/></g></svg>