<svg xmlns="http://www.w3.org/2000/svg" width="32" height="25" viewBox="0 0 32 25" fill="none"><script xmlns=""/><script xmlns="" id="argent-x-extension" data-extension-id="dlcobpjiigpikoobohmabehhmhfoodbb"/>
<path d="M31 20.5H4V1.5C4 1 3.5 0.5 3 0.5H1C0.4375 0.5 0 1 0 1.5V22.5C0 23.625 0.875 24.5 2 24.5H31C31.5 24.5 32 24.0625 32 23.5V21.5C32 21 31.5 20.5 31 20.5ZM29 2.5H21.5625C20.25 2.5 19.5625 4.125 20.5 5.0625L22.5625 7.125L18 11.6875L13.375 7.125C12.625 6.3125 11.3125 6.3125 10.5625 7.125L6.25 11.4375C5.875 11.8125 5.875 12.4375 6.25 12.8125L7.6875 14.25C8.0625 14.625 8.6875 14.625 9.0625 14.25L12 11.375L16.5625 15.9375C17.3125 16.75 18.625 16.75 19.375 15.9375L25.375 9.9375L27.4375 12C28.375 12.9375 29.9375 12.25 29.9375 10.9375V3.5C30 3 29.5 2.5 29 2.5Z" fill="#1de7d9"/>
</svg>