<svg id="Capa_1" fill='#adb5bd' enable-background="new 0 0 609.62 609.62" height="512" viewBox="0 0 609.62 609.62" width="512" xmlns="http://www.w3.org/2000/svg"><g><g><path d="m127.202 188.383-62.855 29.729 7.402 63.34 68.679 11.527 31.913-56.423z"/><path d="m216.509 107.327 6.067-8.737c-20.507-7.402-42.712-10.799-64.554-9.707-12.255.607-24.39 2.548-36.281 5.824l31.67 16.502z"/><path d="m245.388 220.296 18.565-49.75-46.352-48.779-60.549 3.761-19.658 52.177 46.838 49.993z"/><path d="m39.593 498.896 5.46 3.762c1.941-4.611 3.398-9.465 4.49-14.318l-7.402-1.699 3.398-14.197 5.703 1.335c0-.607 0-1.213 0-1.82 0-2.791-.243-5.582-.485-8.373l-5.339 1.213-3.398-14.197 5.824-1.335c-1.092-3.64-2.427-7.28-4.004-10.678l-4.368 3.034-8.251-12.013 5.096-3.519c-2.548-3.64-5.46-6.916-8.615-10.071-14.925 14.682-23.419 34.704-23.419 55.817 0 21.235 8.494 41.256 23.54 55.938 3.762-3.762 7.28-7.887 10.193-12.255l-6.674-4.611z"/><path d="m82.548 379.01c6.31 0 12.498.607 18.444 1.82v-26.452c-8.858 8.009-16.381 16.26-22.448 24.754 1.335-.122 2.669-.122 4.004-.122z"/><path d="m52.091 375.613-14.075-41.863-23.419-10.799c8.858 19.9 21.599 37.737 37.494 52.662z"/><path d="m55.489 288.247c.485-1.092 1.213-1.941 2.063-2.548l-7.887-67.223-39.679-20.385c-9.829 27.18-12.619 56.666-7.402 85.788 1.213 6.674 2.791 13.226 4.732 19.657l33.126 15.41z"/><path d="m123.076 174.186 19.779-52.055-40.043-20.871c-25.967 10.678-49.022 27.909-66.616 49.993-8.251 10.314-15.168 21.477-20.749 33.369l41.135 21.113z"/><path d="m68.108 295.649-16.381 33.49 14.44 42.591c9.343-13.469 22.205-26.574 37.737-38.587 11.285-8.737 23.662-16.624 36.888-23.419l-1.213-2.063z"/><path d="m471.69 253.908c33.733-39.193 81.42-63.34 132.869-67.344-8.858-36.645-28.879-69.65-57.394-94.282l-108.116 135.537z"/><path d="m427.643 218.719 108.115-135.539c-31.185-22.934-68.922-35.189-107.508-35.068 6.674 50.235-6.431 101.199-36.524 141.969z"/><path d="m483.096 262.887 91.37 73.047c28.515-38.829 40.407-87.366 33.005-135.053-48.173 3.277-92.827 25.603-124.375 62.006z"/><path d="m141.884 400.366c.121 0 .243.121.364.243 1.699 1.456 3.276 2.912 4.854 4.368 3.64 3.519 6.795 7.159 9.707 10.799v-97.922c-14.925 6.916-28.758 15.168-41.256 24.511v42.591c9.465 3.64 18.444 8.858 26.331 15.41z"/><path d="m110.578 528.867-8.251-12.013 6.31-4.247c-3.155-6.431-5.582-13.226-7.159-20.264l-6.431 1.577-3.398-14.197 7.766-1.82c-.121-2.063-.243-4.004-.243-6.067 0-4.247.243-8.373.849-12.498l-8.373-1.941 3.398-14.197 8.13 1.941c1.699-5.824 4.004-11.285 6.795-16.624l-7.523-5.096 8.251-12.013 7.159 4.854c2.548-3.398 5.339-6.552 8.251-9.586-12.862-8.615-27.909-13.226-43.562-13.226-15.532 0-30.578 4.611-43.44 13.226 3.398 3.519 6.552 7.28 9.343 11.163l9.465-6.431 8.251 12.013-10.071 6.916c2.427 4.975 4.49 10.193 6.067 15.532l11.406-2.67 3.398 14.197-11.77 2.791c.485 3.762.728 7.766.728 11.649 0 1.699 0 3.519-.121 5.218l11.163 2.67-3.398 14.197-9.829-2.305c-1.456 6.674-3.64 13.105-6.431 19.293l8.858 6.067-8.251 12.013-7.887-5.339c-3.155 4.732-6.795 9.222-10.921 13.348 12.862 8.494 28.03 13.226 43.197 13.105 15.774 0 30.821-4.611 43.562-13.226-3.64-3.64-6.916-7.644-9.829-11.77z"/><path d="m413.688 48.719c-47.08 4.004-90.763 26.21-121.584 61.763l88.336 70.499c27.909-37.979 39.801-85.545 33.248-132.262z"/><path d="m313.582 178.555c-10.678-20.628-25.724-38.951-44.047-53.633-10.314-8.13-21.356-15.046-33.126-20.628l-6.552 9.343 46.716 49.143z"/><path d="m450.576 411.773c1.335-1.092 2.791-2.184 4.247-3.276-4.732-20.992-24.632-46.11-52.662-66.738v152.041c5.339-3.883 10.314-7.887 15.046-12.134.486-27.06 12.499-52.42 33.369-69.893z"/><path d="m506.393 522.8c-14.925 0-29.486-6.31-38.829-16.745-7.523-8.373-11.042-18.808-9.95-29.243.485-4.126 1.335-9.222 2.305-15.046 2.063-12.255 4.975-29.486 4.004-41.741-1.335.971-2.67 2.063-4.004 3.155-17.837 14.925-28.151 36.766-28.151 60.064 0 23.176 10.314 45.139 28.151 60.064 14.076 11.77 31.913 18.201 50.235 18.201 20.385 0 39.679-7.766 54.361-21.963 15.41-14.925 23.904-34.946 24.026-56.06 0-21.477-8.494-41.499-23.904-56.424-2.912-2.791-6.067-5.339-9.343-7.645-1.456 12.013 2.063 29.729 4.49 42.227 1.092 5.824 2.184 10.921 2.669 15.168 1.335 10.314-2.063 20.628-9.465 29.001-9.465 10.557-24.026 16.988-39.193 16.988h-7.402z"/><path d="m462.589 265.192-32.641-26.088-55.089 69.043c8.13 4.247 16.26 8.737 23.904 13.712 10.678 6.916 20.507 14.318 29.122 22.205 5.582-28.515 17.352-55.332 34.704-78.872z"/><path d="m346.344 523.771c14.44-5.46 28.273-12.255 41.256-20.264v-171.577c-12.984-8.009-26.816-14.925-41.256-20.507z"/><path d="m157.052 447.083c-3.762-11.527-10.435-22.205-19.415-31.063-2.791 2.67-5.218 5.46-7.523 8.494l7.523 5.096-8.251 12.013-7.038-4.732c-1.941 3.762-3.519 7.645-4.732 11.649l8.737 2.184-3.398 14.197-8.737-2.063c-.243 3.034-.485 6.067-.485 9.101 0 .849.121 1.82.121 2.67l9.222-2.184 3.398 14.197-10.678 2.548c1.213 5.218 3.034 10.435 5.218 15.289l8.251-5.582 8.251 12.013-9.101 6.188c2.67 3.762 5.703 7.402 9.101 10.678 15.168-14.925 23.419-34.704 23.54-55.938 0-8.009-1.213-15.653-3.398-23.055-.242-.487-.485-1.093-.606-1.7z"/><path d="m477.393 412.015c3.155 14.925-.364 35.189-3.155 52.055-.971 5.582-1.82 10.435-2.184 14.197-.849 8.009 3.034 14.197 6.31 17.958 6.552 7.28 17.23 11.891 27.908 11.891h7.402c10.799 0 21.72-4.611 28.273-12.134 3.276-3.762 6.916-9.707 5.946-17.595-.485-3.762-1.456-8.615-2.548-14.197-3.398-16.988-7.402-37.494-3.64-52.662-9.829-4.368-20.749-6.674-31.67-6.674-11.286.002-22.45 2.55-32.642 7.161z"/><path d="m474.116 274.414c-17.837 24.268-29.243 52.541-33.369 82.269 13.226 14.44 22.691 29.607 27.059 43.804 12.984-6.674 27.666-10.193 42.348-10.193h.364c20.992-10.678 39.436-25.118 55.089-42.955z"/><path d="m418.542 230.125-35.796-28.637c-11.042 12.862-23.54 24.026-37.252 33.49 1.092 9.829 1.335 19.779.849 29.607 0 1.335-.121 2.548-.243 3.883-.607 8.737-1.941 17.352-3.883 25.967 6.431 2.184 12.862 4.732 19.051 7.402z"/><path d="m276.694 281.088-29.729-46.231-61.035 7.402-33.248 58.729 1.335 2.305c2.427-1.092 4.854-2.184 7.402-3.155 31.67-13.105 64.796-19.657 98.408-19.657 5.582 0 11.285.243 16.867.607z"/><path d="m371.34 192.387-66.374-52.905c12.013 14.44 21.841 30.821 28.758 48.294.243.728.607 1.577.849 2.305 3.64 9.343 6.431 18.929 8.373 28.758 10.314-7.765 19.9-16.623 28.394-26.452z"/><path d="m331.055 306.084c-23.419-7.28-47.444-11.042-71.227-11.042-30.214 0-59.943 5.582-88.458 16.745v132.505c2.67 8.858 4.126 18.08 4.126 27.544 0 16.745-4.368 32.762-12.619 46.838 1.213.607 2.548 1.092 4.126 1.82 30.093 12.862 61.277 19.415 92.826 19.415 24.268 0 48.415-3.762 71.955-11.042v-222.54c-.121 0-.243-.121-.364-.121s-.244-.122-.365-.122zm-21.963 118.793h-12.134v13.226h-14.561v-13.226h-9.829v13.226h-14.561v-13.226h-12.984v13.226h-14.561v-13.226h-12.982v13.226h-14.561v-13.226h-10.921v-14.561h10.921v-13.954h14.561v13.954h12.984v-13.954h14.561v13.954h12.984v-13.954h14.561v13.954h9.829v-13.954h14.561v13.954h12.134v14.561z"/><path d="m312.854 286.184c5.096 1.213 10.314 2.427 15.41 3.883.728-3.64 1.456-7.28 1.941-10.921z"/><path d="m322.076 198.091-45.624-19.415-17.716 47.444 33.854 52.541 39.193-15.896c.607-13.105-.243-26.452-2.791-39.436-1.577-8.615-4.004-17.109-6.916-25.238z"/></g></g></svg>